<svg viewBox="0 0 141 31" xmlns="http://www.w3.org/2000/svg" xmlns:xlink="http://www.w3.org/1999/xlink" width="141.000000" height="31.000000" fill="none" customFrame="#000000">
	<path id="KeenKeeper" d="M61.6973 24.02L61.6973 6.98L64.8173 6.98L64.8173 14.756L71.4893 6.98L75.1853 6.98L68.8013 14.468L75.5933 24.02L72.0173 24.02L66.7373 16.604L64.8173 18.788L64.8173 24.02L61.6973 24.02ZM81.8842 24.308C80.6042 24.308 79.4922 24.036 78.5482 23.492C77.6042 22.932 76.8762 22.148 76.3642 21.14C75.8522 20.132 75.5962 18.956 75.5962 17.612C75.5962 16.268 75.8522 15.1 76.3642 14.108C76.8762 13.1 77.5962 12.316 78.5242 11.756C79.4682 11.196 80.5642 10.916 81.8122 10.916C83.0282 10.916 84.0922 11.188 85.0042 11.732C85.9322 12.276 86.6442 13.06 87.1402 14.084C87.6362 15.108 87.8842 16.34 87.8842 17.78L87.8842 18.476L78.7882 18.476C78.8522 19.596 79.1562 20.444 79.7002 21.02C80.2602 21.58 80.9962 21.86 81.9082 21.86C82.5962 21.86 83.1642 21.708 83.6122 21.404C84.0762 21.084 84.3962 20.644 84.5722 20.084L87.7162 20.276C87.3642 21.524 86.6682 22.508 85.6282 23.228C84.6042 23.948 83.3562 24.308 81.8842 24.308ZM78.7882 16.412L84.7162 16.412C84.6522 15.372 84.3562 14.604 83.8282 14.108C83.3002 13.596 82.6282 13.34 81.8122 13.34C80.9962 13.34 80.3162 13.604 79.7722 14.132C79.2442 14.66 78.9162 15.42 78.7882 16.412ZM95.8295 24.308C94.5495 24.308 93.4375 24.036 92.4935 23.492C91.5495 22.932 90.8215 22.148 90.3095 21.14C89.7975 20.132 89.5415 18.956 89.5415 17.612C89.5415 16.268 89.7975 15.1 90.3095 14.108C90.8215 13.1 91.5415 12.316 92.4695 11.756C93.4135 11.196 94.5095 10.916 95.7575 10.916C96.9735 10.916 98.0375 11.188 98.9495 11.732C99.8775 12.276 100.589 13.06 101.085 14.084C101.581 15.108 101.829 16.34 101.829 17.78L101.829 18.476L92.7335 18.476C92.7975 19.596 93.1015 20.444 93.6455 21.02C94.2055 21.58 94.9415 21.86 95.8535 21.86C96.5415 21.86 97.1095 21.708 97.5575 21.404C98.0215 21.084 98.3415 20.644 98.5175 20.084L101.661 20.276C101.309 21.524 100.613 22.508 99.5735 23.228C98.5495 23.948 97.3015 24.308 95.8295 24.308ZM92.7335 16.412L98.6615 16.412C98.5975 15.372 98.3015 14.604 97.7735 14.108C97.2455 13.596 96.5735 13.34 95.7575 13.34C94.9415 13.34 94.2615 13.604 93.7175 14.132C93.1895 14.66 92.8615 15.42 92.7335 16.412ZM104.231 27.62L104.231 11.204L107.183 11.204L107.255 13.94L106.943 13.796C107.263 12.852 107.783 12.14 108.503 11.66C109.239 11.164 110.095 10.916 111.071 10.916C112.287 10.916 113.295 11.22 114.095 11.828C114.911 12.436 115.519 13.244 115.919 14.252C116.319 15.26 116.519 16.38 116.519 17.612C116.519 18.844 116.311 19.964 115.895 20.972C115.495 21.98 114.887 22.788 114.071 23.396C113.271 24.004 112.263 24.308 111.047 24.308C110.407 24.308 109.807 24.196 109.247 23.972C108.703 23.748 108.231 23.428 107.831 23.012C107.447 22.596 107.175 22.108 107.015 21.548L107.303 21.308L107.303 27.62L104.231 27.62ZM110.327 21.812C111.255 21.812 111.983 21.444 112.511 20.708C113.055 19.956 113.327 18.924 113.327 17.612C113.327 16.3 113.055 15.276 112.511 14.54C111.983 13.788 111.255 13.412 110.327 13.412C109.703 13.412 109.167 13.572 108.719 13.892C108.271 14.196 107.919 14.66 107.663 15.284C107.423 15.908 107.303 16.684 107.303 17.612C107.303 18.54 107.423 19.316 107.663 19.94C107.903 20.564 108.247 21.036 108.695 21.356C109.159 21.66 109.703 21.812 110.327 21.812ZM124.447 24.308C123.167 24.308 122.055 24.036 121.111 23.492C120.167 22.932 119.439 22.148 118.927 21.14C118.415 20.132 118.159 18.956 118.159 17.612C118.159 16.268 118.415 15.1 118.927 14.108C119.439 13.1 120.159 12.316 121.087 11.756C122.031 11.196 123.127 10.916 124.375 10.916C125.591 10.916 126.655 11.188 127.567 11.732C128.495 12.276 129.207 13.06 129.703 14.084C130.199 15.108 130.447 16.34 130.447 17.78L130.447 18.476L121.351 18.476C121.415 19.596 121.719 20.444 122.263 21.02C122.823 21.58 123.559 21.86 124.471 21.86C125.159 21.86 125.727 21.708 126.175 21.404C126.639 21.084 126.959 20.644 127.135 20.084L130.279 20.276C129.927 21.524 129.231 22.508 128.191 23.228C127.167 23.948 125.919 24.308 124.447 24.308ZM121.351 16.412L127.279 16.412C127.215 15.372 126.919 14.604 126.391 14.108C125.863 13.596 125.191 13.34 124.375 13.34C123.559 13.34 122.879 13.604 122.335 14.132C121.807 14.66 121.479 15.42 121.351 16.412ZM132.848 24.02L132.848 11.204L135.728 11.204L135.848 14.756L135.584 14.708C135.776 13.476 136.136 12.588 136.664 12.044C137.208 11.484 137.944 11.204 138.872 11.204L140.048 11.204L140.048 13.844L138.848 13.844C138.192 13.844 137.648 13.94 137.216 14.132C136.784 14.324 136.456 14.628 136.232 15.044C136.024 15.444 135.92 15.972 135.92 16.628L135.92 24.02L132.848 24.02Z" fill="rgb(36,77,63)" fill-rule="nonzero" />
	<path id="KeenKeeper" d="M1.64372 24.02L1.64372 6.98L5.81972 6.98L5.81972 14.06L11.5077 6.98L16.3077 6.98L10.1877 14.54L16.6677 24.02L11.9877 24.02L7.45172 17.3L5.81972 19.244L5.81972 24.02L1.64372 24.02ZM23.1102 24.308C21.7662 24.308 20.5902 24.028 19.5822 23.468C18.5742 22.908 17.7902 22.124 17.2302 21.116C16.6702 20.108 16.3902 18.924 16.3902 17.564C16.3902 16.204 16.6702 15.028 17.2302 14.036C17.7902 13.028 18.5662 12.244 19.5582 11.684C20.5662 11.108 21.7422 10.82 23.0862 10.82C24.4302 10.82 25.5902 11.108 26.5662 11.684C27.5582 12.244 28.3182 13.052 28.8462 14.108C29.3742 15.164 29.6382 16.42 29.6382 17.876L29.6382 18.644L20.6622 18.644C20.7102 19.54 20.9582 20.212 21.4062 20.66C21.8702 21.092 22.4622 21.308 23.1822 21.308C23.7262 21.308 24.1822 21.204 24.5502 20.996C24.9182 20.772 25.1822 20.412 25.3422 19.916L29.4702 20.156C29.1182 21.5 28.3742 22.532 27.2382 23.252C26.1022 23.956 24.7262 24.308 23.1102 24.308ZM20.6622 16.292L25.4622 16.292C25.4302 15.444 25.1982 14.812 24.7662 14.396C24.3342 13.964 23.7742 13.748 23.0862 13.748C22.4302 13.748 21.8782 13.972 21.4302 14.42C20.9982 14.868 20.7422 15.492 20.6622 16.292ZM37.7587 24.308C36.4147 24.308 35.2387 24.028 34.2307 23.468C33.2227 22.908 32.4387 22.124 31.8787 21.116C31.3187 20.108 31.0387 18.924 31.0387 17.564C31.0387 16.204 31.3187 15.028 31.8787 14.036C32.4387 13.028 33.2147 12.244 34.2067 11.684C35.2147 11.108 36.3907 10.82 37.7347 10.82C39.0787 10.82 40.2387 11.108 41.2147 11.684C42.2067 12.244 42.9667 13.052 43.4947 14.108C44.0227 15.164 44.2867 16.42 44.2867 17.876L44.2867 18.644L35.3107 18.644C35.3587 19.54 35.6067 20.212 36.0547 20.66C36.5187 21.092 37.1107 21.308 37.8307 21.308C38.3747 21.308 38.8307 21.204 39.1987 20.996C39.5667 20.772 39.8307 20.412 39.9907 19.916L44.1187 20.156C43.7667 21.5 43.0227 22.532 41.8867 23.252C40.7507 23.956 39.3747 24.308 37.7587 24.308ZM35.3107 16.292L40.1107 16.292C40.0787 15.444 39.8467 14.812 39.4147 14.396C38.9827 13.964 38.4227 13.748 37.7347 13.748C37.0787 13.748 36.5267 13.972 36.0787 14.42C35.6467 14.868 35.3907 15.492 35.3107 16.292ZM46.3351 24.02L46.3351 11.108L50.0311 11.108L50.1991 15.068L49.6951 14.972C49.8071 13.948 50.0551 13.132 50.4391 12.524C50.8391 11.916 51.3351 11.484 51.9271 11.228C52.5191 10.956 53.1751 10.82 53.8951 10.82C54.8071 10.82 55.5911 11.02 56.2471 11.42C56.9191 11.804 57.4311 12.364 57.7831 13.1C58.1351 13.82 58.3111 14.692 58.3111 15.716L58.3111 24.02L54.1831 24.02L54.1831 17.132C54.1831 16.476 54.1351 15.916 54.0391 15.452C53.9431 14.988 53.7671 14.636 53.5111 14.396C53.2711 14.156 52.9191 14.036 52.4551 14.036C51.7831 14.036 51.2791 14.308 50.9431 14.852C50.6231 15.38 50.4631 16.14 50.4631 17.132L50.4631 24.02L46.3351 24.02Z" fill="rgb(31,41,55)" fill-rule="nonzero" />
</svg>
